<?xml version="1.0" ?><!DOCTYPE svg  PUBLIC '-//W3C//DTD SVG 1.1//EN'  'http://www.w3.org/Graphics/SVG/1.1/DTD/svg11.dtd'><svg enable-background="new 0 0 128 128" id="Слой_1" version="1.1" viewBox="0 0 128 128" xml:space="preserve" xmlns="http://www.w3.org/2000/svg" xmlns:xlink="http://www.w3.org/1999/xlink"><g><g><path d="M108,124H20c-8.8,0-16-7.2-16-16V20c0-8.8,7.2-16,16-16h88c8.8,0,16,7.2,16,16v88    C124,116.8,116.8,124,108,124z" fill="#FFFFFF"/></g><g><path d="M4,18.1v21.2h120V18.1c0-7.8-6.3-14.1-14.1-14.1H18.1C10.3,4,4,10.3,4,18.1z" fill="#EC7BB0"/><g><rect fill="#62355C" height="2" width="120" x="4" y="38.3"/></g></g><g><circle cx="22.1" cy="21.1" fill="#FFFFFF" r="7.1"/></g><g><circle cx="105.9" cy="21.1" fill="#FFFFFF" r="7.1"/></g><g><circle cx="64" cy="21.1" fill="#FFFFFF" r="7.1"/></g><g><path d="M22.1,29.1c-4.4,0-8.1-3.6-8.1-8.1c0-4.4,3.6-8.1,8.1-8.1s8.1,3.6,8.1,8.1C30.2,25.5,26.6,29.1,22.1,29.1z     M22.1,15c-3.3,0-6.1,2.7-6.1,6.1s2.7,6.1,6.1,6.1s6.1-2.7,6.1-6.1S25.5,15,22.1,15z" fill="#62355C"/></g><g><path d="M105.9,29.1c-4.4,0-8.1-3.6-8.1-8.1c0-4.4,3.6-8.1,8.1-8.1s8.1,3.6,8.1,8.1    C113.9,25.5,110.3,29.1,105.9,29.1z M105.9,15c-3.3,0-6.1,2.7-6.1,6.1s2.7,6.1,6.1,6.1s6.1-2.7,6.1-6.1S109.2,15,105.9,15z" fill="#62355C"/></g><g><path d="M64,29.1c-4.4,0-8.1-3.6-8.1-8.1c0-4.4,3.6-8.1,8.1-8.1s8.1,3.6,8.1,8.1C72.1,25.5,68.4,29.1,64,29.1z     M64,15c-3.3,0-6.1,2.7-6.1,6.1s2.7,6.1,6.1,6.1s6.1-2.7,6.1-6.1S67.3,15,64,15z" fill="#62355C"/></g><g><path d="M108,125H20c-9.4,0-17-7.6-17-17V20c0-9.4,7.6-17,17-17h88c9.4,0,17,7.6,17,17v88    C125,117.4,117.4,125,108,125z M20,5C11.7,5,5,11.7,5,20v88c0,8.3,6.7,15,15,15h88c8.3,0,15-6.7,15-15V20c0-8.3-6.7-15-15-15H20z" fill="#62355C"/></g><g><path d="M61.2,85.1H49c0.9-2,2.6-3.7,5.7-5.6l2.2-1.3c2.7-1.7,6-3.8,6-8.6c0-4.7-3.6-7.8-9.2-7.8    c-3.2,0-5.7,0.9-7.5,2.7c-1.2,1.2-2,2.8-2.5,4.5c0,0.2-0.1,0.4-0.1,0.7c0,1.2,0.8,2,2.1,2.3c0.3,0.1,0.5,0.1,0.7,0.1    c1.2,0,2.1-0.7,2.4-1.8c0.6-2.3,1.6-3.8,4.7-3.8c2,0,4.1,0.8,4.1,3c0,1.9-0.8,2.9-4.2,5.1l-2.3,1.5c-3.2,2.1-5.3,4.2-6.6,6.7    c-0.3,0.6-1.4,2.6-1.4,4.2c0,1.8,1.1,3,3,3h15c1.3,0,2.2-1,2.2-2.5C63.4,86.1,62.5,85.1,61.2,85.1z" fill="#72B6D3"/><path d="M82,62.3H66.8c-1.3,0-2.3,1-2.3,2.5c0,1.4,1,2.5,2.3,2.5h11.5c-3.7,5.9-6.7,13-8.3,19.9    c-0.1,0.3-0.1,0.5-0.1,0.7c0,1.4,1.1,2.3,2.7,2.4h0.1c1.4,0,2.4-0.8,2.7-2.2c1.7-8.1,4.6-14.9,8.1-19.8l0.1-0.2    c0.6-0.8,1.2-1.6,1.2-3C84.8,63.3,83.8,62.3,82,62.3z" fill="#72B6D3"/></g></g></svg>